<?xml version="1.0" standalone="no"?>
<!DOCTYPE svg PUBLIC "-//W3C//DTD SVG 20010904//EN"
 "http://www.w3.org/TR/2001/REC-SVG-20010904/DTD/svg10.dtd">
<svg version="1.0" xmlns="http://www.w3.org/2000/svg"
 width="700.000000pt" height="700.000000pt" viewBox="0 0 700.000000 700.000000"
 preserveAspectRatio="xMidYMid meet">
<metadata>
Created by potrace 1.14, written by Peter Selinger 2001-2017
</metadata>
<g transform="translate(0.000000,700.000000) scale(0.100000,-0.100000)"
fill="#000000" stroke="none">
<path d="M704 6989 c-159 -27 -317 -105 -435 -217 -119 -112 -187 -220 -236
-379 l-28 -88 0 -2805 0 -2805 28 -88 c49 -159 117 -267 236 -379 123 -117
279 -192 449 -218 45 -7 975 -10 2827 -8 l2760 3 88 28 c159 49 267 117 379
236 117 123 192 279 218 449 7 45 10 975 8 2827 l-3 2760 -28 88 c-48 155
-116 266 -228 373 -109 103 -198 155 -346 201 l-88 28 -2775 1 c-1526 1 -2798
-2 -2826 -7z m4426 -755 c0 -3 -264 -514 -586 -1136 -322 -621 -583 -1132
-581 -1135 3 -2 514 259 1136 581 621 322 1132 586 1135 586 3 0 6 -733 6
-1630 0 -896 -3 -1630 -6 -1630 -3 0 -514 264 -1135 586 -622 322 -1133 583
-1136 581 -2 -3 259 -514 581 -1135 322 -622 586 -1133 586 -1136 0 -3 -733
-6 -1630 -6 -896 0 -1630 3 -1630 6 0 3 264 514 586 1136 322 621 583 1132
581 1135 -3 2 -509 -257 -1125 -576 -616 -320 -1128 -584 -1136 -587 -15 -6
-16 147 -16 1626 0 1479 1 1632 16 1626 8 -3 520 -267 1136 -587 616 -319
1122 -578 1125 -576 2 3 -259 514 -581 1135 -322 622 -586 1133 -586 1136 0 3
734 6 1630 6 897 0 1630 -3 1630 -6z"/>
</g>
</svg>
