<svg     viewBox="0 0 24 24" xmlns="http://www.w3.org/2000/svg" fill="currentColor">
<path fill-rule="evenodd" clip-rule="evenodd" d="M1.12223 20.5144L0.296875 22L1.99639 22L21.9964 22L23.6959 22.0001L22.8705 20.5144L12.8705 2.5144L11.9964 0.940918L11.1222 2.5144L1.12223 20.5144ZM20.2969 20L3.6959 20L11.9964 5.05917L20.2969 20ZM10.9946 15.2878L10.9946 9.00004H12.9946V15.2878H10.9946ZM11.9961 19.0001C12.7402 19.0001 13.3435 18.3969 13.3435 17.6528C13.3435 16.9086 12.7402 16.3054 11.9961 16.3054C11.252 16.3054 10.6487 16.9086 10.6487 17.6528C10.6487 18.3969 11.252 19.0001 11.9961 19.0001Z"/>
</svg>
