<svg width="24" height="24" viewBox="0 0 24 24" fill="currentColor" xmlns="http://www.w3.org/2000/svg">
<g id="Property 1=external link">
<g id="Vector">
<path d="M20.2921 2.29297C20.27 2.31502 20.2482 2.33719 20.2265 2.35948C18.4027 4.11238 15.5031 4.09042 13.7063 2.29359L12.2921 3.70781C13.5739 4.98963 15.2484 5.63953 16.9283 5.6575L8.29297 14.2929L9.70718 15.7071L18.3424 7.07187C18.3602 8.75206 19.0101 10.4268 20.2921 11.7088L21.7063 10.2946C19.9093 8.49761 19.8875 5.59773 21.6408 3.77398C21.6633 3.75211 21.6857 3.73005 21.7079 3.70781L20.2921 2.29297Z"/>
<path d="M10 3.9999H2V21.9999H20V13.9999H18V19.9999H4V5.9999H10V3.9999Z"/>
</g>
</g>
</svg>
