<svg  viewBox="0 0 24 24" fill="currentColor" xmlns="http://www.w3.org/2000/svg">
<path fill-rule="evenodd" clip-rule="evenodd" d="M4 2H14L20 8V22H4V2ZM6 20H18V8.82843L13.1716 4H6V20Z" />
<path fill-rule="evenodd" clip-rule="evenodd" d="M9 13.5H7V12.5H9V13.5Z" />
<path fill-rule="evenodd" clip-rule="evenodd" d="M14 13.5H10V12.5H14V13.5Z" />
<path fill-rule="evenodd" clip-rule="evenodd" d="M17 13.5H15V12.5H17V13.5Z" />
<path fill-rule="evenodd" clip-rule="evenodd" d="M9 11.5H7V10.5H9V11.5Z" />
<path fill-rule="evenodd" clip-rule="evenodd" d="M14 11.5H10V10.5H14V11.5Z" />
<path fill-rule="evenodd" clip-rule="evenodd" d="M17 11.5H15V10.5H17V11.5Z" />
<path fill-rule="evenodd" clip-rule="evenodd" d="M9 15.5H7V14.5H9V15.5Z" />
<path fill-rule="evenodd" clip-rule="evenodd" d="M14 15.5H10V14.5H14V15.5Z" />
<path fill-rule="evenodd" clip-rule="evenodd" d="M17 15.5H15V14.5H17V15.5Z" />
<path fill-rule="evenodd" clip-rule="evenodd" d="M9 17.5H7V16.5H9V17.5Z" />
<path fill-rule="evenodd" clip-rule="evenodd" d="M14 17.5H10V16.5H14V17.5Z" />
<path fill-rule="evenodd" clip-rule="evenodd" d="M17 17.5H15V16.5H17V17.5Z" />
</svg>
