<svg xmlns="http://www.w3.org/2000/svg" viewBox="0 0 27 27" fill="currentColor">
  <path fill-rule="evenodd" clip-rule="evenodd" d="M24.9655 0.744141C25.3077 0.744141 25.6358 0.880051 25.8777 1.12197C26.1196 1.3639 26.2555 1.69201 26.2555 2.03414V13.5008C26.2555 13.8429 26.1196 14.1711 25.8777 14.413C25.6358 14.6549 25.3077 14.7908 24.9655 14.7908C24.6234 14.7908 24.2953 14.6549 24.0534 14.413C23.8114 14.1711 23.6755 13.8429 23.6755 13.5008V5.14734L5.14539 23.6775H13.4989C13.841 23.6775 14.1691 23.8134 14.411 24.0553C14.6529 24.2972 14.7889 24.6253 14.7889 24.9675C14.7889 25.3096 14.6529 25.6377 14.411 25.8796C14.1691 26.1216 13.841 26.2575 13.4989 26.2575H2.03219C1.69006 26.2575 1.36194 26.1216 1.12002 25.8796C0.878098 25.6377 0.742187 25.3096 0.742188 24.9675V13.5008C0.742187 13.3314 0.775555 13.1637 0.840383 13.0071C0.905212 12.8506 1.00023 12.7084 1.12002 12.5886C1.23981 12.4689 1.38202 12.3738 1.53853 12.309C1.69504 12.2442 1.86278 12.2108 2.03219 12.2108C2.20159 12.2108 2.36934 12.2442 2.52585 12.309C2.68236 12.3738 2.82457 12.4689 2.94436 12.5886C3.06414 12.7084 3.15916 12.8506 3.22399 13.0071C3.28882 13.1637 3.32219 13.3314 3.32219 13.5008V21.8543L21.8523 3.32414H13.4989C13.1567 3.32414 12.8286 3.18823 12.5867 2.94631C12.3448 2.70439 12.2089 2.37627 12.2089 2.03414C12.2089 1.69201 12.3448 1.3639 12.5867 1.12197C12.8286 0.880051 13.1567 0.744141 13.4989 0.744141H24.9655Z" />
</svg>
