<svg viewBox="0 0 24 24" fill="currentColor" xmlns="http://www.w3.org/2000/svg">
<path fill-rule="evenodd" clip-rule="evenodd" d="M3 12C3 7.02944 7.02944 3 12 3C16.9706 3 21 7.02944 21 12C21 16.9706 16.9706 21 12 21C7.02944 21 3 16.9706 3 12ZM12 1C5.92487 1 1 5.92487 1 12C1 18.0751 5.92487 23 12 23C18.0751 23 23 18.0751 23 12C23 5.92487 18.0751 1 12 1ZM13 11V18H11V11H13ZM12 5.63525C11.1716 5.63525 10.5 6.30683 10.5 7.13525C10.5 7.96367 11.1716 8.63525 12 8.63525C12.8284 8.63525 13.5 7.96367 13.5 7.13525C13.5 6.30683 12.8284 5.63525 12 5.63525Z"/>
</svg>
