<svg viewBox="0 0 1316 290" fill="none" xmlns="http://www.w3.org/2000/svg">
<path d="M104.361 40.2305H65.9406L0 213.409H33.8174C33.8174 213.409 77.863 89.5821 84.895 69.1574C91.9589 89.5821 113.119 147.244 113.119 147.244L136.708 213.409H171.484L104.361 40.2305Z" fill="white"/>
<path d="M65.9059 245.499H104.358L85.1479 213.408L65.9059 245.499Z" fill="white"/>
<path d="M165.955 150.664C165.955 110.518 190.535 84.9793 227.996 84.9793C260.822 84.9793 282.717 103.71 286.361 133.148H255.708C252.8 117.582 241.612 110.518 227.964 110.518C209.713 110.518 197.311 123.176 197.311 150.664C197.311 178.153 210.192 190.81 227.964 190.81C241.836 190.81 253.758 183.267 256.188 166.742H286.841C283.421 197.395 260.087 216.381 227.964 216.381C190.758 216.381 165.923 190.842 165.923 150.696L165.955 150.664Z" fill="white"/>
<path d="M413.638 160.157H319.729C321.935 182.532 334.56 192.504 352.332 192.504C366.939 192.504 376.401 185.696 381.035 174.509H410.474C404.145 200.048 382.25 216.349 352.108 216.349C315.127 216.349 289.588 190.81 289.588 150.664C289.588 110.518 314.391 84.9793 351.629 84.9793C388.866 84.9793 413.67 112.947 413.67 152.838V160.125L413.638 160.157ZM319.985 138.742H382.985C380.556 121.002 369.592 108.824 351.373 108.824C335.072 108.824 322.894 118.062 319.985 138.742Z" fill="white"/>
<path d="M472.516 40.2305H486.868V213.441H472.516V40.2305Z" fill="white"/>
<path d="M607.628 130.719V213.409H593.756V131.934C593.756 108.6 581.578 97.3812 560.418 97.3812C541.687 97.3812 522.221 110.998 521.998 143.121V213.409H508.126V87.92H521.263V111.253C529.03 95.4314 543.893 84.9793 563.103 84.9793C591.326 84.9793 607.628 101.281 607.628 130.719Z" fill="white"/>
<path d="M737.462 40.2305V213.441H724.325V188.861C715.311 206.121 699.521 216.349 678.585 216.349C643.809 216.349 621.658 190.075 621.658 150.664C621.658 111.253 643.809 84.9793 678.585 84.9793C699.01 84.9793 714.576 94.7282 723.59 110.998V40.2305H737.462ZM724.069 150.664C724.069 118.062 707.033 97.3812 680.055 97.3812C653.078 97.3812 636.01 118.797 636.01 151.399C636.01 184.002 653.046 203.947 680.055 203.947C707.065 203.947 724.069 183.267 724.069 150.664Z" fill="white"/>
<path d="M756.991 46.08H771.598V68.9339H756.991V46.08ZM757.471 87.9202H771.343V213.441H757.471V87.9202Z" fill="white"/>
<path d="M894.277 87.9197L843.935 213.44H829.327L778.985 87.9197H794.071L818.396 150.696C824.724 166.742 831.053 183.522 836.647 199.089C842.24 183.267 848.793 166.486 854.898 150.44L879.478 87.9197H894.309H894.277Z" fill="white"/>
<path d="M901.788 46.08H916.395V68.9339H901.788V46.08ZM902.268 87.9202H916.14V213.441H902.268V87.9202Z" fill="white"/>
<path d="M1045.72 40.2305V213.441H1032.58V188.861C1023.6 206.121 1007.78 216.349 986.839 216.349C952.063 216.349 929.912 190.075 929.912 150.664C929.912 111.253 952.063 84.9793 986.839 84.9793C1007.26 84.9793 1022.83 94.7282 1031.84 110.998V40.2305H1045.72ZM1032.36 150.664C1032.36 118.062 1015.32 97.3812 988.31 97.3812C961.3 97.3812 944.264 118.797 944.264 151.399C944.264 184.002 961.3 203.947 988.31 203.947C1015.32 203.947 1032.36 183.267 1032.36 150.664Z" fill="white"/>
<path d="M1164.97 87.9197V213.44H1151.84V190.107C1144.04 205.929 1129.21 216.381 1109.99 216.381C1081.77 216.381 1065.47 200.08 1065.47 170.641V87.9517H1079.34V169.427C1079.34 192.76 1091.52 203.979 1112.65 203.979C1131.63 203.979 1150.84 190.363 1151.07 158.239V87.9517H1164.94L1164.97 87.9197Z" fill="white"/>
<path d="M1294.52 202.221V213.408C1291.83 213.887 1288.67 214.143 1285.5 214.143C1271.89 214.143 1266.04 207.59 1266.04 193.718V192.024C1257.54 208.07 1241.71 216.348 1220.55 216.348C1193.55 216.348 1178.23 202.476 1178.23 180.326C1178.23 160.38 1190.41 146.285 1222.98 142.385L1242.45 140.211C1259.97 138.006 1265.56 132.189 1265.56 119.787C1265.56 105.435 1257.06 96.9329 1233.21 96.9329C1209.37 96.9329 1197.92 104.956 1196.97 125.636H1183.57C1184.31 100.832 1197.67 85.0105 1233.18 85.0105C1266.26 85.0105 1278.92 99.6178 1278.92 119.787V193.239C1278.92 199.312 1281.83 202.253 1287.9 202.253H1294.49L1294.52 202.221ZM1265.56 162.586V143.6C1261.44 147.723 1254.85 150.152 1244.62 151.367L1225.16 153.796C1201.31 156.705 1192.55 164.983 1192.55 180.07C1192.55 195.157 1201.57 204.618 1221.26 204.618C1244.37 204.618 1265.53 191.737 1265.53 162.554L1265.56 162.586Z" fill="white"/>
<path d="M1301.68 40.2305H1315.55V213.441H1301.68V40.2305Z" fill="white"/>
<path d="M104.361 40.2305H65.9406L0 213.409H33.8174C33.8174 213.409 77.863 89.5821 84.895 69.1574C91.9589 89.5821 113.119 147.244 113.119 147.244L136.708 213.409H171.484L104.361 40.2305Z" fill="white"/>
<path d="M65.9059 245.499H104.358L85.1479 213.408L65.9059 245.499Z" fill="white"/>
<path d="M104.361 40.2305H65.9406L0 213.409H33.8174C33.8174 213.409 77.863 89.5821 84.895 69.1574C91.9589 89.5821 113.119 147.244 113.119 147.244L136.708 213.409H171.484L104.361 40.2305Z" fill="white"/>
<path d="M65.9059 245.499H104.358L85.1479 213.408L65.9059 245.499Z" fill="white"/>
<path d="M165.955 150.664C165.955 110.518 190.535 84.9793 227.996 84.9793C260.822 84.9793 282.717 103.71 286.361 133.148H255.708C252.8 117.582 241.612 110.518 227.964 110.518C209.713 110.518 197.311 123.176 197.311 150.664C197.311 178.153 210.192 190.81 227.964 190.81C241.836 190.81 253.758 183.267 256.188 166.742H286.841C283.421 197.395 260.087 216.381 227.964 216.381C190.758 216.381 165.923 190.842 165.923 150.696L165.955 150.664Z" fill="white"/>
<path d="M413.638 160.157H319.729C321.935 182.532 334.56 192.504 352.332 192.504C366.939 192.504 376.401 185.696 381.035 174.509H410.474C404.145 200.048 382.25 216.349 352.108 216.349C315.127 216.349 289.588 190.81 289.588 150.664C289.588 110.518 314.391 84.9793 351.629 84.9793C388.866 84.9793 413.67 112.947 413.67 152.838V160.125L413.638 160.157ZM319.985 138.742H382.985C380.556 121.002 369.592 108.824 351.373 108.824C335.072 108.824 322.894 118.062 319.985 138.742Z" fill="white"/>
<path d="M472.516 40.2305H486.868V213.441H472.516V40.2305Z" fill="white"/>
<path d="M607.628 130.719V213.409H593.756V131.934C593.756 108.6 581.578 97.3812 560.418 97.3812C541.687 97.3812 522.221 110.998 521.998 143.121V213.409H508.126V87.92H521.263V111.253C529.03 95.4314 543.893 84.9793 563.103 84.9793C591.326 84.9793 607.628 101.281 607.628 130.719Z" fill="white"/>
<path d="M737.462 40.2305V213.441H724.325V188.861C715.311 206.121 699.521 216.349 678.585 216.349C643.809 216.349 621.658 190.075 621.658 150.664C621.658 111.253 643.809 84.9793 678.585 84.9793C699.01 84.9793 714.576 94.7282 723.59 110.998V40.2305H737.462ZM724.069 150.664C724.069 118.062 707.033 97.3812 680.055 97.3812C653.078 97.3812 636.01 118.797 636.01 151.399C636.01 184.002 653.046 203.947 680.055 203.947C707.065 203.947 724.069 183.267 724.069 150.664Z" fill="white"/>
<path d="M756.991 46.08H771.598V68.9339H756.991V46.08ZM757.471 87.9202H771.343V213.441H757.471V87.9202Z" fill="white"/>
<path d="M894.277 87.9197L843.935 213.44H829.327L778.985 87.9197H794.071L818.396 150.696C824.724 166.742 831.053 183.522 836.647 199.089C842.24 183.267 848.793 166.486 854.898 150.44L879.478 87.9197H894.309H894.277Z" fill="white"/>
<path d="M901.788 46.08H916.395V68.9339H901.788V46.08ZM902.268 87.9202H916.14V213.441H902.268V87.9202Z" fill="white"/>
<path d="M1045.72 40.2305V213.441H1032.58V188.861C1023.6 206.121 1007.78 216.349 986.839 216.349C952.063 216.349 929.912 190.075 929.912 150.664C929.912 111.253 952.063 84.9793 986.839 84.9793C1007.26 84.9793 1022.83 94.7282 1031.84 110.998V40.2305H1045.72ZM1032.36 150.664C1032.36 118.062 1015.32 97.3812 988.31 97.3812C961.3 97.3812 944.264 118.797 944.264 151.399C944.264 184.002 961.3 203.947 988.31 203.947C1015.32 203.947 1032.36 183.267 1032.36 150.664Z" fill="white"/>
<path d="M1164.97 87.9197V213.44H1151.84V190.107C1144.04 205.929 1129.21 216.381 1109.99 216.381C1081.77 216.381 1065.47 200.08 1065.47 170.641V87.9517H1079.34V169.427C1079.34 192.76 1091.52 203.979 1112.65 203.979C1131.63 203.979 1150.84 190.363 1151.07 158.239V87.9517H1164.94L1164.97 87.9197Z" fill="white"/>
<path d="M1294.52 202.221V213.408C1291.83 213.887 1288.67 214.143 1285.5 214.143C1271.89 214.143 1266.04 207.59 1266.04 193.718V192.024C1257.54 208.07 1241.71 216.348 1220.55 216.348C1193.55 216.348 1178.23 202.476 1178.23 180.326C1178.23 160.38 1190.41 146.285 1222.98 142.385L1242.45 140.211C1259.97 138.006 1265.56 132.189 1265.56 119.787C1265.56 105.435 1257.06 96.9329 1233.21 96.9329C1209.37 96.9329 1197.92 104.956 1196.97 125.636H1183.57C1184.31 100.832 1197.67 85.0105 1233.18 85.0105C1266.26 85.0105 1278.92 99.6178 1278.92 119.787V193.239C1278.92 199.312 1281.83 202.253 1287.9 202.253H1294.49L1294.52 202.221ZM1265.56 162.586V143.6C1261.44 147.723 1254.85 150.152 1244.62 151.367L1225.16 153.796C1201.31 156.705 1192.55 164.983 1192.55 180.07C1192.55 195.157 1201.57 204.618 1221.26 204.618C1244.37 204.618 1265.53 191.737 1265.53 162.554L1265.56 162.586Z" fill="white"/>
<path d="M1301.68 40.2305H1315.55V213.441H1301.68V40.2305Z" fill="white"/>
<path d="M908.464 285.837H899.418V274.107C899.418 267.714 899.482 261.641 899.77 254.801C898.939 257.837 898.14 260.458 897.085 263.878L890.181 285.805H882.446L875.542 263.878C874.487 260.458 873.688 257.869 872.921 254.833C873.144 261.673 873.208 267.682 873.208 274.075V285.805H864.163V245.883H878.354L883.628 263.047C884.587 266.244 885.546 269.728 886.377 272.988C887.208 269.664 888.167 266.084 889.062 262.888L894.272 245.883H908.464V285.837Z" fill="white"/>
<path d="M932.598 285.87C932.214 285.135 931.927 283.92 931.863 282.61C930.009 285.071 926.876 286.541 922.593 286.541C916.52 286.541 912.045 283.473 912.045 277.687C912.045 272.701 915.018 269.377 923.36 268.642L927.899 268.258C930.36 267.971 931.671 267.235 931.671 265.382C931.671 263.656 930.712 262.473 927.228 262.473C923.744 262.473 922.401 263.304 922.114 266.277H913.42C913.867 259.884 917.959 256.24 927.26 256.24C936.561 256.24 940.173 259.66 940.173 265.158V280.532C940.173 282.674 940.557 284.751 941.356 285.87H932.566H932.598ZM931.703 274.459V272.318C931.096 272.989 930.137 273.277 928.794 273.436L925.214 273.82C922.242 274.171 920.995 275.29 920.995 277.304C920.995 279.318 922.497 280.628 925.246 280.628C928.602 280.628 931.703 278.998 931.703 274.459Z" fill="white"/>
<path d="M973.251 285.837H964.717V282.066C962.863 284.815 960.05 286.509 956.023 286.509C948.16 286.509 943.397 280.563 943.397 271.358C943.397 262.152 948.16 256.207 956.023 256.207C959.89 256.207 962.639 257.773 964.493 260.363V245.883H973.251V285.837ZM964.685 271.39C964.685 265.892 962.383 263.271 958.452 263.271C954.52 263.271 952.283 266.148 952.283 271.614C952.283 277.079 954.584 279.509 958.452 279.509C962.319 279.509 964.685 276.888 964.685 271.39Z" fill="white"/>
<path d="M1006.97 273.98H985.559C986.166 278.135 988.755 280.085 992.175 280.085C995.084 280.085 997.002 278.902 997.992 276.824H1006.3C1004.74 282.929 999.111 286.541 992.175 286.541C983.193 286.541 977.152 280.596 977.152 271.391C977.152 262.185 983.034 256.24 992.079 256.24C1001.12 256.24 1007.01 262.473 1007.01 272.222V273.948L1006.97 273.98ZM985.591 268.418H998.376C997.769 264.838 995.467 262.697 991.919 262.697C988.723 262.697 986.262 264.391 985.591 268.418Z" fill="white"/>
<path d="M1035.3 263.302V276.822C1035.3 278.964 1036.35 279.347 1038.62 279.347H1040.86V285.868C1039.52 286.028 1038.11 286.092 1036.83 286.092C1029.61 286.092 1026.57 283.726 1026.57 277.781V263.302H1022.26V256.909H1026.57V248.343H1035.33V256.909H1040.89V263.302H1035.3Z" fill="white"/>
<path d="M1042.81 271.391C1042.81 262.185 1048.75 256.24 1058.02 256.24C1067.29 256.24 1073.17 262.185 1073.17 271.391C1073.17 280.596 1067.23 286.541 1058.02 286.541C1048.82 286.541 1042.81 280.596 1042.81 271.391ZM1064.29 271.391C1064.29 265.893 1061.89 263.272 1057.99 263.272C1054.09 263.272 1051.66 265.893 1051.66 271.391C1051.66 276.888 1054.06 279.509 1057.99 279.509C1061.92 279.509 1064.29 276.888 1064.29 271.391Z" fill="white"/>
<path d="M1135.02 267.075V285.869H1126.26V268.609C1126.26 265.477 1125.02 263.719 1121.95 263.719C1119.33 263.719 1116.96 265.445 1116.96 269.888V285.869H1108.2V268.609C1108.2 265.477 1106.96 263.719 1103.89 263.719C1101.27 263.719 1098.84 265.445 1098.84 269.888V285.869H1090.08V256.942H1098.61V261.034C1100.47 258.285 1103.06 256.271 1106.86 256.271C1111.08 256.271 1114.28 258.125 1115.84 261.481C1117.79 258.573 1120.89 256.271 1124.86 256.271C1131.09 256.271 1135.02 260.139 1135.02 267.107V267.075Z" fill="white"/>
<path d="M1168.75 273.98H1147.33C1147.94 278.135 1150.53 280.085 1153.95 280.085C1156.86 280.085 1158.77 278.902 1159.76 276.824H1168.07C1166.51 282.929 1160.88 286.541 1153.95 286.541C1144.96 286.541 1138.92 280.596 1138.92 271.391C1138.92 262.185 1144.8 256.24 1153.85 256.24C1162.9 256.24 1168.78 262.473 1168.78 272.222V273.948L1168.75 273.98ZM1147.36 268.418H1160.15C1159.54 264.838 1157.24 262.697 1153.69 262.697C1150.49 262.697 1148.03 264.391 1147.36 268.418Z" fill="white"/>
<path d="M1191.63 285.87C1191.24 285.135 1190.96 283.92 1190.89 282.61C1189.04 285.071 1185.91 286.541 1181.62 286.541C1175.55 286.541 1171.07 283.473 1171.07 277.687C1171.07 272.701 1174.05 269.377 1182.39 268.642L1186.93 268.258C1189.39 267.971 1190.7 267.235 1190.7 265.382C1190.7 263.656 1189.74 262.473 1186.26 262.473C1182.77 262.473 1181.43 263.304 1181.14 266.277H1172.45C1172.9 259.884 1176.99 256.24 1186.29 256.24C1195.59 256.24 1199.2 259.66 1199.2 265.158V280.532C1199.2 282.674 1199.59 284.751 1200.38 285.87H1191.59H1191.63ZM1190.73 274.459V272.318C1190.12 272.989 1189.17 273.277 1187.82 273.436L1184.24 273.82C1181.27 274.171 1180.02 275.29 1180.02 277.304C1180.02 279.318 1181.53 280.628 1184.28 280.628C1187.63 280.628 1190.73 278.998 1190.73 274.459Z" fill="white"/>
<path d="M1202.56 276.664H1211.09C1211.44 279.796 1213.01 280.883 1216.65 280.883C1220.3 280.883 1221.54 279.828 1221.54 278.07C1221.54 276.312 1220.49 275.481 1216.56 274.874L1212.79 274.267C1206.68 273.308 1203.04 270.559 1203.04 265.413C1203.04 259.627 1207.58 256.271 1216.05 256.271C1225.79 256.271 1229.21 260.522 1229.5 266.212H1221.38C1221.26 263.079 1219.21 262.12 1216.05 262.12C1212.88 262.12 1211.6 263.175 1211.6 264.869C1211.6 266.563 1213.01 267.331 1215.82 267.778L1220.14 268.385C1226.98 269.44 1230.3 272.189 1230.3 277.367C1230.3 283.376 1225.19 286.732 1216.49 286.732C1207.8 286.732 1203.1 283.888 1202.59 276.696L1202.56 276.664Z" fill="white"/>
<path d="M1261.11 256.911V285.838H1252.58V281.747C1250.66 284.432 1247.75 286.509 1243.5 286.509C1237.78 286.509 1233.47 283.025 1233.47 275.865V256.911H1242.22V274.139C1242.22 277.336 1243.63 279.062 1246.89 279.062C1249.58 279.062 1252.39 277.336 1252.39 273.053V256.911H1261.15H1261.11Z" fill="white"/>
<path d="M1284.83 256.592V264.551H1282.59C1277.7 264.551 1274.92 266.948 1274.92 272.414V285.87H1266.17V256.943H1274.7V262.313C1275.95 258.733 1278.63 256.496 1282.95 256.496C1283.62 256.496 1284.22 256.56 1284.86 256.624L1284.83 256.592Z" fill="white"/>
<path d="M1315.96 273.98H1294.55C1295.16 278.135 1297.75 280.085 1301.17 280.085C1304.07 280.085 1305.99 278.902 1306.98 276.824H1315.29C1313.73 282.929 1308.1 286.541 1301.17 286.541C1292.18 286.541 1286.14 280.596 1286.14 271.391C1286.14 262.185 1292.02 256.24 1301.07 256.24C1310.12 256.24 1316 262.473 1316 272.222V273.948L1315.96 273.98ZM1294.61 268.418H1307.4C1306.79 264.838 1304.49 262.697 1300.94 262.697C1297.75 262.697 1295.28 264.391 1294.61 268.418Z" fill="white"/>
</svg>
