<svg viewBox="0 0 1316 261" fill="none" xmlns="http://www.w3.org/2000/svg">
<path d="M104.377 0H65.9115L0 173.849H33.8008C33.8008 173.849 77.877 49.5838 84.9076 29.0313C91.9382 49.516 113.165 107.375 113.165 107.375L136.758 173.781H171.573L104.377 0Z" fill="white"/>
<path d="M65.9115 206H104.377L85.178 173.849L65.9115 206Z" fill="white"/>
<path d="M166.029 110.834C166.029 70.5433 190.636 44.9035 228.088 44.9035C260.942 44.9035 282.845 63.6925 286.496 93.2664H255.804C252.897 77.6655 241.676 70.5433 228.088 70.5433C209.835 70.5433 197.397 83.2275 197.397 110.834C197.397 138.441 210.309 151.125 228.088 151.125C241.946 151.125 253.912 143.528 256.345 126.978H287.036C283.656 157.773 260.266 176.765 228.155 176.765C190.907 176.765 166.097 151.125 166.097 110.834H166.029Z" fill="white"/>
<path d="M319.891 120.398C322.054 142.85 334.763 152.889 352.475 152.889C367.077 152.889 376.541 146.038 381.205 134.846H410.68C404.325 160.486 382.49 176.833 352.272 176.833C315.294 176.833 289.74 151.193 289.74 110.902C289.74 70.6111 314.55 44.9714 351.799 44.9714C389.047 44.9714 413.857 73.053 413.857 113.073V120.398H319.891ZM320.093 98.8963H383.098C380.664 81.057 369.713 68.8475 351.461 68.8475C335.169 68.8475 323 78.1403 320.093 98.8963Z" fill="white"/>
<path d="M472.67 0H487.002V173.849H472.67V0Z" fill="white"/>
<path d="M607.806 90.8245V173.849H593.948V92.0454C593.948 68.5762 581.779 57.3843 560.62 57.3843C541.894 57.3843 522.425 71.0859 522.155 103.305V173.849H508.296V47.8881H521.411V71.3573C529.185 55.485 544.058 44.9714 563.256 44.9714C591.446 44.9714 607.806 61.3184 607.806 90.8923V90.8245Z" fill="white"/>
<path d="M737.736 0V173.849H724.621V149.158C715.63 166.523 699.812 176.765 678.855 176.765C644.04 176.765 621.935 150.379 621.935 110.834C621.935 71.2894 644.108 44.9035 678.855 44.9035C699.271 44.9035 714.887 54.6711 723.878 71.0181V0H737.736ZM724.351 110.834C724.351 78.1403 707.315 57.3843 680.342 57.3843C653.369 57.3843 636.266 78.8864 636.266 111.581C636.266 144.275 653.302 164.352 680.342 164.352C707.383 164.352 724.351 143.596 724.351 110.902V110.834Z" fill="white"/>
<path d="M757.273 5.83339H771.875V28.76H757.273V5.83339ZM757.746 47.8881H771.604V173.849H757.746V47.8881Z" fill="white"/>
<path d="M894.572 47.8881L844.209 173.849H829.607L779.243 47.8881H794.319L818.655 110.902C825.01 127.046 831.297 143.868 836.908 159.469C842.518 143.596 849.076 126.774 855.16 110.631L879.767 47.8881H894.639H894.572Z" fill="white"/>
<path d="M902.076 5.83339H916.677V28.76H902.076V5.83339ZM902.549 47.8881H916.407V173.849H902.549V47.8881Z" fill="white"/>
<path d="M1046.07 0V173.849H1032.95V149.158C1023.96 166.523 1008.14 176.765 987.186 176.765C952.371 176.765 930.265 150.379 930.265 110.834C930.265 71.2894 952.439 44.9035 987.186 44.9035C1007.6 44.9035 1023.22 54.6711 1032.21 71.0181V0H1046.07ZM1032.68 110.834C1032.68 78.1403 1015.65 57.3843 988.606 57.3843C961.565 57.3843 944.529 78.8864 944.529 111.581C944.529 144.275 961.565 164.352 988.606 164.352C1015.65 164.352 1032.68 143.596 1032.68 110.902V110.834Z" fill="white"/>
<path d="M1165.38 47.8881V173.849H1152.27V150.379C1144.49 166.252 1129.62 176.765 1110.42 176.765C1082.17 176.765 1065.87 160.418 1065.87 130.844V47.8881H1079.73V129.691C1079.73 153.16 1091.9 164.352 1113.06 164.352C1132.06 164.352 1151.26 150.651 1151.53 118.431V47.8881H1165.38Z" fill="white"/>
<path d="M1294.91 162.589V173.849C1292.2 174.323 1289.09 174.595 1285.92 174.595C1272.26 174.595 1266.45 168.015 1266.45 154.11V152.414C1257.93 168.558 1242.11 176.833 1220.95 176.833C1193.91 176.833 1178.63 162.928 1178.63 140.68C1178.63 120.67 1190.8 106.493 1223.39 102.559L1242.86 100.389C1260.36 98.218 1265.97 92.3168 1265.97 79.9038C1265.97 65.5239 1257.46 56.9773 1233.59 56.9773C1209.73 56.9773 1198.31 65.0491 1197.36 85.8051H1183.97C1184.72 60.9114 1198.1 45.0392 1233.59 45.0392C1266.72 45.0392 1279.36 59.6905 1279.36 79.9717V153.703C1279.36 159.808 1282.27 162.724 1288.35 162.724H1294.91V162.589ZM1265.97 122.84V103.78C1261.85 107.918 1255.29 110.36 1245.02 111.581L1225.55 114.022C1201.69 116.939 1192.97 125.282 1192.97 140.408C1192.97 155.534 1201.96 165.031 1221.7 165.031C1244.82 165.031 1265.97 152.075 1265.97 122.772V122.84Z" fill="white"/>
<path d="M1302.14 0H1316V173.849H1302.14V0Z" fill="white"/>
</svg>
