<svg viewBox="0 0 300 38" fill="currentColor" xmlns="http://www.w3.org/2000/svg">
  <path d="M18.9873 11.02L18.6076 19.19H17.0886C11.3924 19.19 8.16456 22.23 8.16456 28.88V37.05H0V11.21H8.16456V16.15C10.0633 13.11 12.9114 10.83 17.0886 10.83C17.8481 10.83 18.4177 10.83 18.9873 11.02Z" />
  <path d="M48.9873 26.22H30C30.7595 29.26 32.8481 31.16 35.5063 31.16C37.4051 31.16 39.6836 30.78 41.0127 28.12L48.2279 29.64C45.9494 35.15 41.3924 37.81 35.5063 37.81C28.1013 37.81 21.8354 32.3 21.8354 24.13C21.8354 15.96 28.1013 10.45 35.5063 10.45C42.7215 10.45 48.6076 15.77 48.7975 24.13V26.22H48.9873ZM30.1899 21.28H40.8228C40.0633 18.43 38.1646 17.1 35.6962 17.1C33.4177 17.1 30.9494 18.62 30.1899 21.28Z" />
  <path d="M81.8354 37.05H73.6709V34.96C71.5823 36.67 68.924 37.81 65.6962 37.81C58.8608 37.81 53.1646 32.3 53.1646 24.13C53.1646 15.96 58.8608 10.45 65.6962 10.45C69.1139 10.45 71.7721 11.4 73.6709 13.3V0H81.8354V37.05ZM73.6709 24.13C73.6709 20.14 70.6329 17.48 67.4051 17.48C63.7975 17.48 61.1392 20.14 61.1392 24.13C61.1392 28.12 63.7975 30.78 67.4051 30.78C70.6329 30.78 73.6709 28.12 73.6709 24.13Z" />
  <path d="M116.392 37.05H108.228V34.96C106.139 36.67 103.481 37.81 100.253 37.81C93.4176 37.81 87.7214 32.3 87.7214 24.13C87.7214 15.96 93.4176 10.45 100.253 10.45C103.671 10.45 106.329 11.4 108.228 13.3V11.21H116.392V37.05ZM108.038 24.13C108.038 20.14 105 17.48 101.772 17.48C98.1645 17.48 95.5062 20.14 95.5062 24.13C95.5062 28.12 98.1645 30.78 101.772 30.78C105.19 30.78 108.038 28.12 108.038 24.13Z" />
  <path d="M149.62 21.28V37.05H141.456V22.99C141.456 19.95 139.747 17.86 137.089 17.86C133.861 17.86 131.772 20.14 131.772 25.08V37.05H123.418V11.21H131.582V13.68C133.481 11.59 136.329 10.45 139.557 10.45C145.633 10.45 149.62 14.63 149.62 21.28Z" />
  <path d="M183.797 37.05H175.633V34.96C173.544 36.67 170.886 37.81 167.658 37.81C160.823 37.81 155.126 32.3 155.126 24.13C155.126 15.96 160.823 10.45 167.658 10.45C170.886 10.45 173.544 11.4 175.633 13.3V0H183.797V37.05ZM175.633 24.13C175.633 20.14 172.595 17.48 169.367 17.48C165.759 17.48 163.101 20.14 163.101 24.13C163.101 28.12 165.759 30.78 169.367 30.78C172.595 30.78 175.633 28.12 175.633 24.13Z" />
  <path d="M219.684 24.13C219.684 32.3 213.987 37.81 207.152 37.81C203.734 37.81 201.076 36.86 199.177 34.96V37.05H191.013V0H199.177V13.3C201.266 11.59 203.924 10.45 207.152 10.45C213.987 10.45 219.684 15.96 219.684 24.13ZM211.709 24.13C211.709 20.14 209.051 17.48 205.443 17.48C202.025 17.48 199.177 20.14 199.177 24.13C199.177 28.12 202.215 30.78 205.443 30.78C209.051 30.78 211.709 28.12 211.709 24.13Z" />
  <path d="M225.38 37.05V0H233.544V37.05H225.38Z" />
  <path d="M266.582 37.05H258.228V34.58C256.329 36.67 253.481 37.81 250.253 37.81C244.177 37.81 240.19 33.63 240.19 26.98V11.21H248.355V25.27C248.355 28.31 250.063 30.4 252.722 30.4C255.949 30.4 258.038 28.12 258.038 23.18V11.21H266.203V37.05H266.582Z" />
  <path d="M299.051 26.22H280.063C280.823 29.26 282.911 31.16 285.57 31.16C287.468 31.16 289.747 30.78 291.076 28.12L298.291 29.64C296.013 35.15 291.456 37.81 285.57 37.81C278.164 37.81 271.899 32.3 271.899 24.13C271.899 15.96 278.164 10.45 285.57 10.45C292.785 10.45 298.671 15.77 298.861 24.13V26.22H299.051ZM280.253 21.28H290.886C290.127 18.43 288.038 17.29 285.759 17.29C283.481 17.1 281.013 18.62 280.253 21.28Z" />
</svg>
