<svg viewBox="0 0 1316 261" fill="none" xmlns="http://www.w3.org/2000/svg">
<path d="M88.1253 40H71.6623L0 217.03H15.7021C15.7021 217.03 71.939 77.0223 79.8938 55.8864C87.8486 77.0223 144.639 217.03 144.639 217.03H160.341L88.1253 40Z" fill="white"/>
<path d="M157.574 152.863C157.574 111.558 180.747 85.7252 215.61 85.7252C245.492 85.7252 265.137 104.375 269.149 130.967H254.692C250.68 110.591 235.254 98.3653 215.61 98.3653C190.431 98.3653 172.308 117.015 172.308 152.794C172.308 188.573 190.5 207.222 215.61 207.222C235.254 207.222 251.441 194.305 254.969 172.893H269.426C265.69 200.729 244.316 219.862 215.679 219.862C180.816 219.862 157.643 194.029 157.643 152.724L157.574 152.863Z" fill="white"/>
<path d="M391.376 157.629H290.523C292.045 189.47 307.954 207.084 334.862 207.084C355.752 207.084 369.725 194.927 373.945 176.002H388.609C383.144 201.627 364.191 220 334.309 220C298.478 220 276.066 193.408 276.066 152.863C276.066 112.318 297.994 85.7252 333.825 85.7252C369.656 85.7252 391.376 115.564 391.376 152.586V157.629ZM290.73 144.919H376.158C374.636 118.534 360.249 98.6416 333.825 98.6416C309.199 98.6416 293.221 115.564 290.73 144.919Z" fill="white"/>
<path d="M453.078 40H467.742V217.03H453.078V40Z" fill="white"/>
<path d="M591.422 132.487V217.03H577.242V133.73C577.242 109.831 564.791 98.4344 543.14 98.4344C523.979 98.4344 504.057 112.387 503.781 145.196V217.03H489.6V88.7644H503.02V112.663C510.975 96.5004 526.193 85.7943 545.837 85.7943C574.682 85.7943 591.422 102.441 591.422 132.556V132.487Z" fill="white"/>
<path d="M724.302 40V217.03H710.882V191.888C701.682 209.57 685.496 220 664.053 220C628.429 220 605.81 193.131 605.81 152.863C605.81 112.594 628.498 85.7253 664.053 85.7253C684.943 85.7253 700.921 95.6715 710.121 112.318V40H724.302ZM710.605 152.863C710.605 119.57 693.174 98.4344 665.574 98.4344C637.975 98.4344 620.474 120.33 620.474 153.622C620.474 186.915 637.905 207.36 665.574 207.36C693.243 207.36 710.605 186.224 710.605 152.932V152.863Z" fill="white"/>
<path d="M744.292 45.9401H759.233V69.2863H744.292V45.9401ZM744.776 88.7644H758.957V217.03H744.776V88.7644Z" fill="white"/>
<path d="M884.781 88.7644L833.248 217.03H818.306L766.773 88.7644H782.199L807.101 152.932C813.603 169.371 820.036 186.5 825.777 202.387C831.518 186.224 838.228 169.094 844.454 152.655L869.632 88.7644H884.85H884.781Z" fill="white"/>
<path d="M892.528 45.9401H907.469V69.2863H892.528V45.9401ZM893.012 88.7644H907.193V217.03H893.012V88.7644Z" fill="white"/>
<path d="M1039.8 40V217.03H1026.38V191.888C1017.18 209.57 1000.99 220 979.547 220C943.923 220 921.304 193.131 921.304 152.863C921.304 112.594 943.923 85.7253 979.547 85.7253C1000.44 85.7253 1016.42 95.6715 1025.62 112.318V40H1039.8ZM1026.1 152.863C1026.1 119.57 1008.67 98.4344 981.069 98.4344C953.469 98.4344 935.968 120.33 935.968 153.622C935.968 186.915 953.4 207.36 981.069 207.36C1008.74 207.36 1026.1 186.224 1026.1 152.932V152.863Z" fill="white"/>
<path d="M1161.88 88.7644V217.03H1148.47V193.131C1140.51 209.294 1125.29 220 1105.65 220C1076.73 220 1060.06 203.354 1060.06 173.239V88.7644H1074.24V172.064C1074.24 195.963 1086.69 207.36 1108.35 207.36C1127.78 207.36 1147.43 193.408 1147.7 160.599V88.7644H1161.88Z" fill="white"/>
<path d="M1294.49 205.564V217.03C1291.72 217.513 1288.54 217.79 1285.29 217.79C1271.31 217.79 1265.37 211.09 1265.37 196.93V195.203C1256.65 211.642 1240.46 220.069 1218.81 220.069C1191.14 220.069 1175.51 205.909 1175.51 183.254C1175.51 162.878 1187.96 148.442 1221.3 144.436L1241.22 142.226C1259.14 140.015 1264.88 134.006 1264.88 121.366C1264.88 106.723 1256.17 98.02 1231.75 98.02C1207.33 98.02 1195.64 106.239 1194.67 127.375H1180.98C1181.74 102.026 1195.43 85.8634 1231.75 85.8634C1265.64 85.8634 1278.58 100.783 1278.58 121.435V196.516C1278.58 202.732 1281.55 205.702 1287.78 205.702H1294.49V205.564ZM1264.81 165.088V145.679C1260.59 149.893 1253.88 152.379 1243.37 153.622L1223.45 156.109C1199.03 159.079 1190.11 167.575 1190.11 182.978C1190.11 198.381 1199.31 208.051 1219.5 208.051C1243.16 208.051 1264.81 194.858 1264.81 165.019V165.088Z" fill="white"/>
<path d="M1301.82 40H1316V217.03H1301.82V40Z" fill="white"/>
<path d="M144.639 217.03L43.4401 149.478L80.1705 149.823L144.639 217.03Z" fill="white"/>
</svg>
