<svg     viewBox="0 0 24 24" fill="currentColor" xmlns="http://www.w3.org/2000/svg">
<path fill-rule="evenodd" clip-rule="evenodd" d="M16.4957 1.58594L17.2029 2.29253L21.7069 6.79251L22.4149 7.49997L21.7068 8.20739L8.19319 21.7074L7.89874 22.0016L7.48255 21.9999L2.99617 21.9825L2 21.9786L2.00007 20.9824L2.00036 16.4999L2.00039 16.0858L2.29314 15.793L15.7889 2.29295L16.4957 1.58594ZM16.4965 4.41396L14.6627 6.24837L17.7488 9.33444L19.5852 7.49988L16.4965 4.41396ZM4.00033 16.9141L13.2487 7.66281L16.3338 10.7479L7.07414 19.9983L4.00013 19.9864L4.00033 16.9141ZM12.0001 22H22.0001V20L12.0001 20V22Z"/>
</svg>
