<svg width="24" height="24" viewBox="0 0 24 24" fill="currentColor" xmlns="http://www.w3.org/2000/svg">
<g id="Property 1=radio on" clip-path="url(#clip0_20_274)">
<path id="Vector" fill-rule="evenodd" clip-rule="evenodd" d="M5.33316 2.02236C7.30655 0.703788 9.62663 0 12 0C15.1826 0 18.2348 1.26428 20.4853 3.51472C22.7357 5.76515 24 8.8174 24 12C24 14.3734 23.2962 16.6934 21.9776 18.6668C20.6591 20.6402 18.7849 22.1783 16.5922 23.0865C14.3995 23.9948 11.9867 24.2324 9.65892 23.7694C7.33115 23.3064 5.19295 22.1635 3.51472 20.4853C1.83649 18.807 0.693605 16.6689 0.230582 14.3411C-0.232441 12.0133 0.0051994 9.60051 0.913451 7.4078C1.8217 5.21508 3.35977 3.34094 5.33316 2.02236ZM6.28557 20.5523C7.97704 21.6825 9.96568 22.2857 12 22.2857C14.7279 22.2857 17.3442 21.202 19.2731 19.2731C21.202 17.3441 22.2857 14.7279 22.2857 12C22.2857 9.96568 21.6825 7.97704 20.5523 6.28556C19.4221 4.59409 17.8156 3.27574 15.9362 2.49724C14.0567 1.71874 11.9886 1.51505 9.99336 1.91192C7.99813 2.3088 6.16539 3.28842 4.72691 4.7269C3.28842 6.16538 2.3088 7.99812 1.91193 9.99335C1.51505 11.9886 1.71874 14.0567 2.49724 15.9362C3.27575 17.8156 4.59409 19.422 6.28557 20.5523ZM8.66658 7.01118C9.65327 6.35189 10.8133 6 12 6C13.5913 6 15.1174 6.63214 16.2426 7.75736C17.3679 8.88258 18 10.4087 18 12C18 13.1867 17.6481 14.3467 16.9888 15.3334C16.3295 16.3201 15.3925 17.0891 14.2961 17.5433C13.1997 17.9974 11.9933 18.1162 10.8295 17.8847C9.66557 17.6532 8.59647 17.0817 7.75736 16.2426C6.91824 15.4035 6.3468 14.3344 6.11529 13.1705C5.88378 12.0067 6.0026 10.8003 6.45672 9.7039C6.91085 8.60754 7.67988 7.67047 8.66658 7.01118Z"/>
</g>
<defs>
<clipPath id="clip0_20_274">
<rect width="24" height="24" fill="white"/>
</clipPath>
</defs>
</svg>
