<svg width="24" height="24" viewBox="0 0 24 24" fill="currentColor" xmlns="http://www.w3.org/2000/svg">
<g id="Property 1=radio off" clip-path="url(#clip0_20_272)">
<path id="Vector" d="M12 0C9.62663 0 7.30655 0.703788 5.33316 2.02236C3.35977 3.34094 1.8217 5.21508 0.913451 7.4078C0.0051994 9.60051 -0.232441 12.0133 0.230582 14.3411C0.693605 16.6689 1.83649 18.807 3.51472 20.4853C5.19295 22.1635 7.33115 23.3064 9.65892 23.7694C11.9867 24.2324 14.3995 23.9948 16.5922 23.0865C18.7849 22.1783 20.6591 20.6402 21.9776 18.6668C23.2962 16.6934 24 14.3734 24 12C24 8.8174 22.7357 5.76515 20.4853 3.51472C18.2348 1.26428 15.1826 0 12 0ZM12 22.2857C9.96568 22.2857 7.97704 21.6825 6.28557 20.5523C4.59409 19.422 3.27575 17.8156 2.49724 15.9362C1.71874 14.0567 1.51505 11.9886 1.91193 9.99335C2.3088 7.99812 3.28842 6.16538 4.72691 4.7269C6.16539 3.28842 7.99813 2.3088 9.99336 1.91192C11.9886 1.51505 14.0567 1.71874 15.9362 2.49724C17.8156 3.27574 19.4221 4.59409 20.5523 6.28556C21.6825 7.97704 22.2857 9.96568 22.2857 12C22.2857 14.7279 21.202 17.3441 19.2731 19.2731C17.3442 21.202 14.7279 22.2857 12 22.2857Z"/>
</g>
<defs>
<clipPath id="clip0_20_272">
<rect width="24" height="24" fill="white"/>
</clipPath>
</defs>
</svg>
