<svg  viewBox="0 0 24 24" fill="currentColor" xmlns="http://www.w3.org/2000/svg">
<path d="M23.4937 6.32602C23.3571 5.82769 23.0897 5.37332 22.7181 5.00841C22.3466 4.64349 21.884 4.38082 21.3766 4.24668C19.5082 3.75 12 3.75 12 3.75C12 3.75 4.49183 3.75 2.62336 4.24668C2.11599 4.38082 1.6534 4.64349 1.28186 5.00841C0.910331 5.37332 0.642899 5.82769 0.506332 6.32602C0.157447 8.19765 -0.0118575 10.0973 0.00064491 12C-0.0118575 13.9027 0.157447 15.8024 0.506332 17.674C0.642899 18.1723 0.910331 18.6267 1.28186 18.9916C1.6534 19.3565 2.11599 19.6192 2.62336 19.7533C4.49183 20.25 12 20.25 12 20.25C12 20.25 19.5082 20.25 21.3766 19.7533C21.884 19.6192 22.3466 19.3565 22.7181 18.9916C23.0897 18.6267 23.3571 18.1723 23.4937 17.674C23.8426 15.8024 24.0119 13.9027 23.9994 12C24.0119 10.0973 23.8426 8.19765 23.4937 6.32602ZM9.60013 15.5357V8.46429L15.8312 12L9.60013 15.5357Z" />
</svg>