<svg width="24" height="24" viewBox="0 0 24 24" fill="currentColor" xmlns="http://www.w3.org/2000/svg">
<g id="Property 1=linkdin" opacity="0.3">
<path id="Vector" d="M5.92503 23H1.3638V8.31186H5.92503V23ZM3.64167 6.30829C2.18333 6.30829 1 5.09986 1 3.64157C1 2.94098 1.27832 2.26909 1.77373 1.7737C2.26913 1.27831 2.94105 1 3.64167 1C4.34228 1 5.0142 1.27831 5.50961 1.7737C6.00501 2.26909 6.28333 2.94098 6.28333 3.64157C6.28333 5.09986 5.1 6.30829 3.64167 6.30829ZM22.9961 23H18.4451V15.85C18.4451 14.1458 18.4105 11.9607 16.0737 11.9607C13.7023 11.9607 13.3385 13.8119 13.3385 15.7274V23H8.78199V8.31186H13.1562V10.3154H13.2199C13.8288 9.16121 15.3162 7.94336 17.5352 7.94336C22.1514 7.94336 23 10.9833 23 14.9315V23H22.9961Z"/>
</g>
</svg>
