<svg  viewBox="0 0 24 24" fill="currentColor" xmlns="http://www.w3.org/2000/svg">
<path fill-rule="evenodd" clip-rule="evenodd" d="M16.4701 24.0001V14.7061H19.5901L20.0569 11.0845H16.4689V8.77204C16.4689 7.72324 16.7605 7.00804 18.2653 7.00804H20.1829V3.76802C19.2542 3.66919 18.3208 3.62112 17.3869 3.62402C14.6221 3.62402 12.7297 5.31243 12.7297 8.41204V11.0845H9.60005V14.7061H12.7285V24.0001H1.32481C0.592803 24.0001 0 23.4073 0 22.6753V1.32481C0 0.592803 0.592803 0 1.32481 0H22.6753C23.4073 0 24.0001 0.592803 24.0001 1.32481V22.6753C24.0001 23.4073 23.4073 24.0001 22.6753 24.0001H16.4701Z" />
</svg>