<svg width="24" height="24" viewBox="0 0 24 24" fill="currentColor" xmlns="http://www.w3.org/2000/svg">
<g id="Property 1=insta" opacity="0.3">
<path id="Vector" d="M12 1C9.00969 1 8.63702 1.01444 7.46675 1.06395C6.29166 1.1217 5.49681 1.30391 4.79547 1.5762C4.06145 1.85331 3.39669 2.28717 2.84754 2.84754C2.28561 3.39541 1.8515 4.06054 1.5762 4.79547C1.30391 5.49681 1.1217 6.29166 1.06395 7.46675C1.011 8.6377 1 9.00969 1 12C1 14.9903 1.01444 15.363 1.06395 16.5333C1.1217 17.7049 1.30391 18.5032 1.5762 19.2045C1.85331 19.9385 2.28717 20.6033 2.84754 21.1525C3.39541 21.7144 4.06054 22.1485 4.79547 22.4238C5.49681 22.6926 6.2951 22.8783 7.46675 22.9361C8.63771 22.989 9.00969 23 12 23C14.9903 23 15.363 22.9856 16.5333 22.9361C17.7049 22.8783 18.5032 22.692 19.2045 22.4238C19.9386 22.1467 20.6033 21.7128 21.1525 21.1525C21.7151 20.6052 22.1493 19.9399 22.4238 19.2045C22.6926 18.5032 22.8783 17.7049 22.9361 16.5333C22.989 15.3623 23 14.9903 23 12C23 9.00969 22.9856 8.63702 22.9361 7.46675C22.8783 6.2951 22.692 5.49269 22.4238 4.79547C22.1467 4.06145 21.7128 3.39669 21.1525 2.84754C20.6052 2.28488 19.9399 1.85067 19.2045 1.5762C18.5032 1.30391 17.7049 1.1217 16.5333 1.06395C15.3623 1.011 14.9903 1 12 1ZM12 2.98025C14.9367 2.98025 15.2873 2.99469 16.448 3.04419C17.5186 3.09439 18.1016 3.27316 18.4888 3.42443C18.9673 3.60108 19.4005 3.88226 19.7567 4.24747C20.1213 4.60214 20.4014 5.03431 20.5763 5.51194C20.7275 5.89905 20.9063 6.48212 20.9565 7.55269C21.006 8.71334 21.0204 9.0647 21.0204 12.0007C21.0204 14.9367 21.006 15.288 20.9524 16.4487C20.8946 17.5193 20.7158 18.1023 20.5653 18.4894C20.3569 19.0058 20.1245 19.3668 19.7408 19.7573C19.3835 20.1203 18.9506 20.4001 18.4729 20.5769C18.0906 20.7282 17.4993 20.907 16.4246 20.9572C15.2578 21.0067 14.914 21.0211 11.9697 21.0211C9.0255 21.0211 8.6824 21.0067 7.51419 20.9531C6.44362 20.8953 5.85298 20.7165 5.46587 20.5659C4.94331 20.3576 4.58507 20.1252 4.2014 19.7415C3.81429 19.3544 3.56813 18.9859 3.37836 18.4736C3.22434 18.0913 3.04832 17.5 2.99125 16.4253C2.95206 15.2722 2.93349 14.9147 2.93349 11.9842C2.93349 9.05507 2.95206 8.69684 2.99125 7.52932C3.04832 6.45462 3.22434 5.86467 3.37836 5.481C3.56813 4.95774 3.81498 4.6002 4.2014 4.21309C4.58439 3.8301 4.94331 3.58257 5.46587 3.38867C5.85298 3.23809 6.42918 3.05932 7.50388 3.00569C8.67071 2.96375 9.0145 2.94862 11.9546 2.94862L12 2.98025ZM12 6.35423C11.2583 6.35396 10.5239 6.49984 9.83861 6.78354C9.15335 7.06724 8.5307 7.4832 8.00626 8.00764C7.48182 8.53208 7.06587 9.15472 6.78217 9.83999C6.49847 10.5253 6.35259 11.2597 6.35286 12.0014C6.35259 12.743 6.49847 13.4775 6.78217 14.1628C7.06587 14.848 7.48182 15.4707 8.00626 15.9951C8.5307 16.5196 9.15335 16.9355 9.83861 17.2192C10.5239 17.5029 11.2583 17.6488 12 17.6485C12.7417 17.6488 13.4761 17.5029 14.1614 17.2192C14.8467 16.9355 15.4693 16.5196 15.9937 15.9951C16.5182 15.4707 16.9341 14.848 17.2178 14.1628C17.5015 13.4775 17.6474 12.743 17.6471 12.0014C17.6474 11.2597 17.5015 10.5253 17.2178 9.83999C16.9341 9.15472 16.5182 8.53208 15.9937 8.00764C15.4693 7.4832 14.8467 7.06724 14.1614 6.78354C13.4761 6.49984 12.7417 6.35396 12 6.35423ZM12 15.6683C9.973 15.6683 8.3331 14.0284 8.3331 12.0014C8.3331 9.97437 9.973 8.33448 12 8.33448C14.027 8.33448 15.6669 9.97437 15.6669 12.0014C15.6669 14.0284 14.027 15.6683 12 15.6683ZM19.1949 6.1287C19.1945 6.47914 19.0551 6.8151 18.8071 7.06277C18.5592 7.31044 18.2231 7.44956 17.8727 7.44956C17.6994 7.44956 17.5278 7.41543 17.3677 7.34912C17.2076 7.28281 17.0622 7.18562 16.9397 7.06309C16.8171 6.94057 16.7199 6.79511 16.6536 6.63502C16.5873 6.47493 16.5532 6.30336 16.5532 6.13008C16.5532 5.9568 16.5873 5.78522 16.6536 5.62514C16.7199 5.46505 16.8171 5.31959 16.9397 5.19707C17.0622 5.07454 17.2076 4.97735 17.3677 4.91104C17.5278 4.84473 17.6994 4.8106 17.8727 4.8106C18.5995 4.8106 19.1949 5.40193 19.1949 6.1287Z"/>
</g>
</svg>
