<svg class="rnb-eternia" viewBox="0 0 200 200" fill="none" xmlns="http://www.w3.org/2000/svg">
<rect x="15" y="35" width="170" height="130" stroke="#682EE3" stroke-width="10"/>
<mask id="path-2-outside-1_203_208" maskUnits="userSpaceOnUse" x="30" y="50" width="140" height="102" fill="black">
<rect fill="white" x="30" y="50" width="140" height="102"/>
<path fill-rule="evenodd" clip-rule="evenodd" d="M120.444 60H80.4445L92.4424 91.1057L40 66L40 135.333L91.5433 111.225L80.4445 140H120.444L109.976 111.936L160 135.333V66L109.121 90.3574L120.444 60Z"/>
</mask>
<path d="M80.4445 60V50H65.8692L71.1145 63.5987L80.4445 60ZM120.444 60L129.814 63.4949L134.848 50H120.444V60ZM92.4424 91.1057L88.1244 100.125L110.833 110.997L101.772 87.507L92.4424 91.1057ZM40 66L44.318 56.9803L30 50.1259L30 66L40 66ZM40 135.333L30 135.333L30 151.05L44.2367 144.391L40 135.333ZM91.5433 111.225L100.873 114.824L109.816 91.6387L87.3066 102.167L91.5433 111.225ZM80.4445 140L71.1145 136.401L65.8692 150H80.4445V140ZM120.444 140V150H134.848L129.814 136.505L120.444 140ZM109.976 111.936L114.213 102.878L92.0591 92.5158L100.607 115.431L109.976 111.936ZM160 135.333L155.763 144.391L170 151.05V135.333H160ZM160 66H170V50.1259L155.682 56.9803L160 66ZM109.121 90.3574L99.7513 86.8625L91.0927 110.075L113.439 99.3771L109.121 90.3574ZM80.4445 70H120.444V50H80.4445V70ZM101.772 87.507L89.7745 56.4013L71.1145 63.5987L83.1124 94.7044L101.772 87.507ZM35.682 75.0197L88.1244 100.125L96.7604 82.086L44.318 56.9803L35.682 75.0197ZM50 135.333L50 66L30 66L30 135.333L50 135.333ZM87.3066 102.167L35.7633 126.275L44.2367 144.391L95.7801 120.283L87.3066 102.167ZM89.7745 143.599L100.873 114.824L82.2133 107.626L71.1145 136.401L89.7745 143.599ZM120.444 130H80.4445V150H120.444V130ZM100.607 115.431L111.075 143.495L129.814 136.505L119.346 108.441L100.607 115.431ZM164.237 126.275L114.213 102.878L105.739 120.994L155.763 144.391L164.237 126.275ZM150 66V135.333H170V66H150ZM113.439 99.3771L164.318 75.0197L155.682 56.9803L104.803 81.3377L113.439 99.3771ZM111.075 56.5051L99.7513 86.8625L118.49 93.8523L129.814 63.4949L111.075 56.5051Z" fill="#682EE3" mask="url(#path-2-outside-1_203_208)"/>
</svg>
