<svg class="rnb-eternia" viewBox="0 0 200 200" fill="none" xmlns="http://www.w3.org/2000/svg">
<path fill-rule="evenodd" clip-rule="evenodd" d="M33 30C20.2975 30 10 40.2975 10 53V97C10 109.703 20.2974 120 33 120H74.8671L73.359 110H33C25.8203 110 20 104.18 20 97V53C20 45.8203 25.8203 40 33 40H167C174.18 40 180 45.8203 180 53V97C180 104.18 174.18 110 167 110H154.063L166.6 120H167C179.703 120 190 109.703 190 97V53C190 40.2975 179.703 30 167 30H33Z" fill="#682EE3"/>
<path d="M82.8568 72.3925L161.589 135.19L115.5 130.5L97.875 171.975L82.8568 72.3925Z" fill="#682EE3" stroke="#682EE3" stroke-width="10"/>
</svg>
